<svg xmlns="http://www.w3.org/2000/svg" width="1200" height="675" viewBox="0 0 1200 675" role="img" aria-labelledby="title desc">
  <title id="title">Tirage de la phase de groupes de l’Euro 2028</title><desc id="desc">Les groupes A à F avec les noms et drapeaux des 24 pays, le groupe B du Kosovo étant mis en évidence.</desc>
  <defs><linearGradient id="bg" x1="0" y1="0" x2="1" y2="1"><stop stop-color="#091b48"/><stop offset=".52" stop-color="#08296a"/><stop offset="1" stop-color="#040b25"/></linearGradient><radialGradient id="light" cx="50%" cy="0" r="75%"><stop stop-color="#2c78e8" stop-opacity=".7"/><stop offset="1" stop-color="#2c78e8" stop-opacity="0"/></radialGradient><filter id="shadow"><feDropShadow dx="0" dy="7" stdDeviation="8" flood-color="#000" flood-opacity=".35"/></filter></defs>
  <rect width="1200" height="675" fill="url(#bg)"/><rect width="1200" height="675" fill="url(#light)"/><path d="M0 125C250 78 420 140 600 110s405-58 600 3" fill="none" stroke="#6aa9ff" stroke-opacity=".22" stroke-width="2"/><path d="M0 610c280-50 460 32 680-8s350-23 520 2" fill="none" stroke="#efbd52" stroke-opacity=".26" stroke-width="3"/>
  <g font-family="Arial,Helvetica,sans-serif"><text x="60" y="52" fill="#b9c9e6" font-size="20" font-weight="700" letter-spacing="2">CHAMPIONNAT D’EUROPE · ROYAUME-UNI</text><text x="60" y="102" fill="#fff" font-size="40" font-weight="900">EURO 2028</text><text x="310" y="102" fill="#efbd52" font-size="28" font-weight="800">TIRAGE DE LA PHASE DE GROUPES</text><text x="1140" y="90" text-anchor="end" fill="#b9c9e6" font-size="19">11 AVRIL 2028</text>
  <!-- Groupe A --><g transform="translate(60 145)" filter="url(#shadow)"><rect width="340" height="210" rx="18" fill="#071633" stroke="#fff" stroke-opacity=".18"/><rect width="340" height="45" rx="18" fill="#153b7d"/><path d="M0 45h340" stroke="#fff" stroke-opacity=".12"/><text x="22" y="31" fill="#fff" font-size="22" font-weight="900">GROUPE A</text><text x="22" y="78" font-size="23">🇩🇰</text><text x="62" y="77" fill="#fff" font-size="19">Danemark</text><text x="22" y="116" font-size="23">🏴󠁧󠁢󠁳󠁣󠁴󠁿</text><text x="62" y="115" fill="#fff" font-size="19">Écosse</text><text x="22" y="154" font-size="23">🇬🇷</text><text x="62" y="153" fill="#fff" font-size="19">Grèce</text><text x="22" y="192" font-size="23">🇹🇷</text><text x="62" y="191" fill="#fff" font-size="19">Turquie</text></g>
  <!-- Groupe B --><g transform="translate(430 145)" filter="url(#shadow)"><rect width="340" height="210" rx="18" fill="#102957" stroke="#efbd52" stroke-width="3"/><rect width="340" height="45" rx="16" fill="#efbd52"/><path d="M0 45h340" stroke="#efbd52"/><text x="22" y="31" fill="#071633" font-size="22" font-weight="900">GROUPE B · KOSOVO</text><text x="22" y="78" font-size="23">🇩🇪</text><text x="62" y="77" fill="#fff" font-size="19">Allemagne</text><text x="22" y="116" font-size="23">🏴󠁧󠁢󠁥󠁮󠁧󠁿</text><text x="62" y="115" fill="#fff" font-size="19">Angleterre</text><rect x="12" y="126" width="316" height="35" rx="9" fill="#1764c0"/><text x="22" y="153" font-size="23">🇽🇰</text><text x="62" y="151" fill="#fff" font-size="20" font-weight="800">Kosovo</text><text x="22" y="192" font-size="23">🇨🇿</text><text x="62" y="191" fill="#fff" font-size="19">République tchèque</text></g>
  <!-- Groupe C --><g transform="translate(800 145)" filter="url(#shadow)"><rect width="340" height="210" rx="18" fill="#071633" stroke="#fff" stroke-opacity=".18"/><rect width="340" height="45" rx="18" fill="#153b7d"/><text x="22" y="31" fill="#fff" font-size="22" font-weight="900">GROUPE C</text><text x="22" y="78" font-size="23">🇧🇦</text><text x="62" y="77" fill="#fff" font-size="19">Bosnie</text><text x="22" y="116" font-size="23">🇭🇷</text><text x="62" y="115" fill="#fff" font-size="19">Croatie</text><text x="22" y="154" font-size="23">🇪🇸</text><text x="62" y="153" fill="#fff" font-size="19">Espagne</text><text x="22" y="192" font-size="23">🏴󠁧󠁢󠁷󠁬󠁳󠁿</text><text x="62" y="191" fill="#fff" font-size="19">Pays de Galles</text></g>
  <!-- Groupe D --><g transform="translate(60 382)" filter="url(#shadow)"><rect width="340" height="210" rx="18" fill="#071633" stroke="#fff" stroke-opacity=".18"/><rect width="340" height="45" rx="18" fill="#153b7d"/><text x="22" y="31" fill="#fff" font-size="22" font-weight="900">GROUPE D</text><text x="22" y="78" font-size="23">🇮🇪</text><text x="62" y="77" fill="#fff" font-size="19">Irlande</text><text x="22" y="116" font-size="23">🇳🇴</text><text x="62" y="115" fill="#fff" font-size="19">Norvège</text><text x="22" y="154" font-size="23">🇵🇹</text><text x="62" y="153" fill="#fff" font-size="19">Portugal</text><text x="22" y="192" font-size="23">🇨🇭</text><text x="62" y="191" fill="#fff" font-size="19">Suisse</text></g>
  <!-- Groupe E --><g transform="translate(430 382)" filter="url(#shadow)"><rect width="340" height="210" rx="18" fill="#071633" stroke="#fff" stroke-opacity=".18"/><rect width="340" height="45" rx="18" fill="#153b7d"/><text x="22" y="31" fill="#fff" font-size="22" font-weight="900">GROUPE E</text><text x="22" y="78" font-size="23">🇫🇷</text><text x="62" y="77" fill="#fff" font-size="19">France</text><text x="22" y="116" font-size="23">🇭🇺</text><text x="62" y="115" fill="#fff" font-size="19">Hongrie</text><text x="22" y="154" font-size="23">🇲🇰</text><text x="62" y="153" fill="#fff" font-size="19">Macédoine du Nord</text><text x="22" y="192" font-size="23">🇺🇦</text><text x="62" y="191" fill="#fff" font-size="19">Ukraine</text></g>
  <!-- Groupe F --><g transform="translate(800 382)" filter="url(#shadow)"><rect width="340" height="210" rx="18" fill="#071633" stroke="#fff" stroke-opacity=".18"/><rect width="340" height="45" rx="18" fill="#153b7d"/><text x="22" y="31" fill="#fff" font-size="22" font-weight="900">GROUPE F</text><text x="22" y="78" font-size="23">🇮🇹</text><text x="62" y="77" fill="#fff" font-size="19">Italie</text><text x="22" y="116" font-size="23">🇳🇱</text><text x="62" y="115" fill="#fff" font-size="19">Pays-Bas</text><text x="22" y="154" font-size="23">🇷🇸</text><text x="62" y="153" fill="#fff" font-size="19">Serbie</text><text x="22" y="192" font-size="23">🇸🇪</text><text x="62" y="191" fill="#fff" font-size="19">Suède</text></g>
  <text x="60" y="640" fill="#7db5ff" font-size="20" font-weight="700">#EURO2028  #Kosovo  #Dardanët</text><text x="1140" y="640" text-anchor="end" fill="#aebed8" font-size="18">24 nations · 6 groupes</text></g>
</svg>
